<svg width="48" height="48" viewBox="0 0 48 48" fill="none" xmlns="http://www.w3.org/2000/svg">
  <rect width="48" height="48" rx="16" fill="#ECFDF5"/>
  <path d="M24 10C16.268 10 10 16.268 10 24C10 31.732 16.268 38 24 38C31.732 38 38 31.732 38 24C38 16.268 31.732 10 24 10ZM24 35C18.477 35 14 30.523 14 25C14 19.477 18.477 15 24 15C29.523 15 34 19.477 34 25C34 30.523 29.523 35 24 35Z" fill="#10B981"/>
  <path d="M31.5 22C31.5 25.589 28.589 28.5 25 28.5C23.6217 28.5 22.3149 28.1064 21.2217 27.3934L22.3675 25.8378C23.1849 26.4104 24.0717 26.75 25 26.75C27.4853 26.75 29.5 24.7353 29.5 22.25C29.5 19.7647 27.4853 17.75 25 17.75C22.5147 17.75 20.5 19.7647 20.5 22.25H18.5C18.5 18.4101 21.6601 15.25 25.5 15.25C29.3399 15.25 32.5 18.4101 32.5 22.25V22Z" fill="#047857"/>
</svg>
